<svg xmlns="http://www.w3.org/2000/svg" viewBox="0 0 900 600" role="img" aria-labelledby="title desc">
  <title id="title">Workflow audit paper model</title>
  <desc id="desc">Scattered requests and status cards being gathered into a clear workflow map.</desc>
  <defs>
    <filter id="shadow" x="-30%" y="-30%" width="160%" height="170%"><feDropShadow dx="0" dy="14" stdDeviation="13" flood-color="#10253f" flood-opacity=".18"/></filter>
    <filter id="paper"><feTurbulence type="fractalNoise" baseFrequency=".65" numOctaves="2" seed="4" result="noise"/><feColorMatrix in="noise" values="1 0 0 0 0 0 1 0 0 0 0 0 1 0 0 0 0 0 .06 0"/><feBlend in="SourceGraphic" mode="multiply"/></filter>
  </defs>
  <g filter="url(#shadow)">
    <g transform="translate(72 92) rotate(-5 120 72)" filter="url(#paper)"><rect width="240" height="144" rx="12" fill="#faf7ed"/><rect x="24" y="25" width="48" height="38" rx="5" fill="#ffd84f"/><path d="M31 34h34v21H31zM31 34l17 13 17-13" fill="none" stroke="#10253f" stroke-width="5"/><text x="24" y="100" fill="#10253f" font-family="Arial,sans-serif" font-size="24" font-weight="700">REQUESTS</text></g>
    <g transform="translate(54 342) rotate(4 128 70)" filter="url(#paper)"><rect width="256" height="140" rx="12" fill="#faf7ed"/><rect x="25" y="24" width="42" height="42" rx="6" fill="#d6e4ec"/><path d="M35 35h22M35 45h22M35 55h14" stroke="#10253f" stroke-width="4"/><text x="25" y="102" fill="#10253f" font-family="Arial,sans-serif" font-size="24" font-weight="700">STATUS</text></g>
    <path d="M323 167C394 167 405 229 466 238M321 409C391 409 404 334 466 320" fill="none" stroke="#10253f" stroke-width="7" stroke-dasharray="12 13"/>
    <g transform="translate(447 140)" filter="url(#paper)"><rect width="374" height="320" rx="18" fill="#faf7ed"/><text x="34" y="54" fill="#10253f" font-family="Arial,sans-serif" font-size="23" font-weight="700">WORKFLOW MAP</text><path d="M52 114h110M52 174h188M52 234h270" stroke="#d1ccbf" stroke-width="20" stroke-linecap="round"/><circle cx="71" cy="114" r="20" fill="#ffd84f"/><circle cx="183" cy="174" r="20" fill="#10253f"/><circle cx="292" cy="234" r="20" fill="#ffd84f"/><path d="M71 114l112 60 109 60" fill="none" stroke="#10253f" stroke-width="7" stroke-dasharray="10 10"/><circle cx="295" cy="92" r="70" fill="#d6e4ec" stroke="#10253f" stroke-width="9"/><path d="M344 141l54 54" stroke="#10253f" stroke-width="16" stroke-linecap="round"/></g>
  </g>
</svg>
